<?xml version="1.0" encoding="UTF-8"?>
<!DOCTYPE svg PUBLIC "-//W3C//DTD SVG 1.1//EN" "http://www.w3.org/Graphics/SVG/1.1/DTD/svg11.dtd">
<svg xmlns="http://www.w3.org/2000/svg" version="1.1" width="212px" height="212px" style="shape-rendering:geometricPrecision; text-rendering:geometricPrecision; image-rendering:optimizeQuality; fill-rule:evenodd; clip-rule:evenodd" xmlns:xlink="http://www.w3.org/1999/xlink">
<g><path style="opacity:0.999" fill="#2e4b7d" d="M 170.5,61.5 C 170.569,66.8537 170.902,72.187 171.5,77.5C 170.078,73.8365 168.411,70.1698 166.5,66.5C 164.16,69.931 161.16,71.431 157.5,71C 157.201,72.3204 157.034,73.8204 157,75.5C 155.671,74.5061 154.338,73.5061 153,72.5C 151.662,73.5061 150.329,74.5061 149,75.5C 148.517,74.552 148.351,73.552 148.5,72.5C 146.8,72.6261 145.3,73.2927 144,74.5C 142.441,73.9706 140.941,73.304 139.5,72.5C 138.193,73.8155 136.693,74.8155 135,75.5C 134.517,74.552 134.351,73.552 134.5,72.5C 131.306,72.2695 128.306,72.9362 125.5,74.5C 122.366,71.8032 119.533,72.1365 117,75.5C 116.517,74.552 116.351,73.552 116.5,72.5C 114.535,73.129 112.535,73.7957 110.5,74.5C 108.956,74.2104 107.623,73.5437 106.5,72.5C 104.678,76.1021 103.678,76.1021 103.5,72.5C 101.876,72.3601 100.71,73.0267 100,74.5C 99.4806,73.4844 98.6473,72.8178 97.5,72.5C 94.6286,75.0594 91.7952,75.0594 89,72.5C 87.779,73.2718 86.779,74.2718 86,75.5C 85.5172,74.552 85.3505,73.552 85.5,72.5C 81.682,74.013 77.682,74.6796 73.5,74.5C 73.67,73.1779 73.3366,72.0113 72.5,71C 68.5476,71.4161 65.7143,69.5828 64,65.5C 61.8496,72.7192 60.0163,80.0525 58.5,87.5C 57.5353,90.4928 56.2019,93.1595 54.5,95.5C 56.7119,79.8497 58.8786,64.1831 61,48.5C 62.2191,39.8984 64.3858,31.5651 67.5,23.5C 71.1554,21.9982 74.4887,22.4982 77.5,25C 83.5776,32.4839 88.9109,40.4839 93.5,49C 108.158,46.871 122.825,47.0377 137.5,49.5C 138.5,49.1667 139.5,48.8333 140.5,48.5C 144.449,39.0677 149.782,30.5677 156.5,23C 158.044,21.8129 159.711,21.4795 161.5,22C 163.837,25.8394 165.337,30.006 166,34.5C 167.934,43.4378 169.434,52.4378 170.5,61.5 Z"/></g>
<g><path style="opacity:1" fill="#2a4574" d="M 171.5,77.5 C 172.979,83.7519 173.979,90.0853 174.5,96.5C 173.833,96.1667 173.167,95.8333 172.5,95.5C 172.221,90.7732 171.554,86.1065 170.5,81.5C 168.089,81.1367 166.589,82.1367 166,84.5C 164.237,84.6938 162.403,84.6938 160.5,84.5C 159.833,85.8333 159.167,87.1667 158.5,88.5C 157.914,88.2907 157.414,87.9574 157,87.5C 156.79,89.0581 156.29,90.3915 155.5,91.5C 155.529,84.1688 151.863,81.0021 144.5,82C 141.038,84.2393 139.705,87.406 140.5,91.5C 139.691,89.7078 139.191,87.7078 139,85.5C 137.355,87.6618 135.188,88.9951 132.5,89.5C 127.968,88.8602 123.468,88.1935 119,87.5C 117.333,88.1667 115.667,88.8333 114,89.5C 112.542,88.2532 111.042,88.2532 109.5,89.5C 108.833,88.8333 108.167,88.1667 107.5,87.5C 104.298,88.1272 101.131,88.7939 98,89.5C 97.5291,87.7536 96.8624,86.087 96,84.5C 95.8265,88.5408 95.3265,92.5408 94.5,96.5C 93.8333,97.1667 93.1667,97.8333 92.5,98.5C 89.6894,97.9204 87.0227,97.2537 84.5,96.5C 92.8305,96.5024 95.8305,92.5024 93.5,84.5C 89.2951,80.5537 85.1284,80.5537 81,84.5C 80.3333,87.1667 80.3333,89.8333 81,92.5C 82.4813,93.4709 83.3146,94.8042 83.5,96.5C 82.1196,97.7065 80.9529,97.3731 80,95.5C 79.6667,91.8333 79.3333,88.1667 79,84.5C 78.0766,85.7588 77.2432,87.0921 76.5,88.5C 74.5841,87.7517 72.5841,87.7517 70.5,88.5C 71.0477,84.1643 69.8811,83.1643 67,85.5C 65.4487,83.106 63.282,81.7727 60.5,81.5C 60.405,83.7857 59.7384,85.7857 58.5,87.5C 60.0163,80.0525 61.8496,72.7192 64,65.5C 65.7143,69.5828 68.5476,71.4161 72.5,71C 73.3366,72.0113 73.67,73.1779 73.5,74.5C 77.682,74.6796 81.682,74.013 85.5,72.5C 85.3505,73.552 85.5172,74.552 86,75.5C 86.779,74.2718 87.779,73.2718 89,72.5C 91.7952,75.0594 94.6286,75.0594 97.5,72.5C 98.6473,72.8178 99.4806,73.4844 100,74.5C 100.71,73.0267 101.876,72.3601 103.5,72.5C 103.678,76.1021 104.678,76.1021 106.5,72.5C 107.623,73.5437 108.956,74.2104 110.5,74.5C 112.535,73.7957 114.535,73.129 116.5,72.5C 116.351,73.552 116.517,74.552 117,75.5C 119.533,72.1365 122.366,71.8032 125.5,74.5C 128.306,72.9362 131.306,72.2695 134.5,72.5C 134.351,73.552 134.517,74.552 135,75.5C 136.693,74.8155 138.193,73.8155 139.5,72.5C 140.941,73.304 142.441,73.9706 144,74.5C 145.3,73.2927 146.8,72.6261 148.5,72.5C 148.351,73.552 148.517,74.552 149,75.5C 150.329,74.5061 151.662,73.5061 153,72.5C 154.338,73.5061 155.671,74.5061 157,75.5C 157.034,73.8204 157.201,72.3204 157.5,71C 161.16,71.431 164.16,69.931 166.5,66.5C 168.411,70.1698 170.078,73.8365 171.5,77.5 Z"/></g>
<g><path style="opacity:1" fill="#27406d" d="M 83.5,96.5 C 83.8333,96.5 84.1667,96.5 84.5,96.5C 87.0227,97.2537 89.6894,97.9204 92.5,98.5C 93.1667,97.8333 93.8333,97.1667 94.5,96.5C 95.3265,92.5408 95.8265,88.5408 96,84.5C 96.8624,86.087 97.5291,87.7536 98,89.5C 101.131,88.7939 104.298,88.1272 107.5,87.5C 108.167,88.1667 108.833,88.8333 109.5,89.5C 111.042,88.2532 112.542,88.2532 114,89.5C 115.667,88.8333 117.333,88.1667 119,87.5C 123.468,88.1935 127.968,88.8602 132.5,89.5C 135.188,88.9951 137.355,87.6618 139,85.5C 139.191,87.7078 139.691,89.7078 140.5,91.5C 143.166,96.5715 147.166,97.7381 152.5,95C 153.636,93.8549 154.636,92.6883 155.5,91.5C 156.29,90.3915 156.79,89.0581 157,87.5C 157.414,87.9574 157.914,88.2907 158.5,88.5C 159.167,87.1667 159.833,85.8333 160.5,84.5C 162.403,84.6938 164.237,84.6938 166,84.5C 166.589,82.1367 168.089,81.1367 170.5,81.5C 171.554,86.1065 172.221,90.7732 172.5,95.5C 170.797,94.3398 170.131,95.0065 170.5,97.5C 169.5,97.5 168.5,97.5 167.5,97.5C 167.5,98.5 167.5,99.5 167.5,100.5C 164.626,100.623 162.126,101.623 160,103.5C 152.547,102.58 144.88,102.247 137,102.5C 135.527,102.903 134.194,103.57 133,104.5C 132.612,103.572 131.945,102.905 131,102.5C 126.196,104.16 121.529,103.493 117,100.5C 112.679,102.765 108.179,103.599 103.5,103C 102.318,104.678 101.152,104.512 100,102.5C 90.1559,102.669 80.3226,103.002 70.5,103.5C 68.9916,100.582 66.8249,99.9157 64,101.5C 62.294,99.2951 60.794,96.9617 59.5,94.5C 56.5916,99.5521 54.925,104.885 54.5,110.5C 54.6602,108.801 54.4935,107.134 54,105.5C 53.6174,106.056 53.1174,106.389 52.5,106.5C 53.2735,102.86 53.9401,99.1932 54.5,95.5C 56.2019,93.1595 57.5353,90.4928 58.5,87.5C 59.7384,85.7857 60.405,83.7857 60.5,81.5C 63.282,81.7727 65.4487,83.106 67,85.5C 69.8811,83.1643 71.0477,84.1643 70.5,88.5C 72.5841,87.7517 74.5841,87.7517 76.5,88.5C 77.2432,87.0921 78.0766,85.7588 79,84.5C 79.3333,88.1667 79.6667,91.8333 80,95.5C 80.9529,97.3731 82.1196,97.7065 83.5,96.5 Z"/></g>
<g><path style="opacity:1" fill="#e9ebf0" d="M 155.5,91.5 C 154.636,92.6883 153.636,93.8549 152.5,95C 147.166,97.7381 143.166,96.5715 140.5,91.5C 139.705,87.406 141.038,84.2393 144.5,82C 151.863,81.0021 155.529,84.1688 155.5,91.5 Z"/></g>
<g><path style="opacity:1" fill="#eff1f4" d="M 84.5,96.5 C 84.1667,96.5 83.8333,96.5 83.5,96.5C 83.3146,94.8042 82.4813,93.4709 81,92.5C 80.3333,89.8333 80.3333,87.1667 81,84.5C 85.1284,80.5537 89.2951,80.5537 93.5,84.5C 95.8305,92.5024 92.8305,96.5024 84.5,96.5 Z"/></g>
<g><path style="opacity:1" fill="#253d67" d="M 172.5,95.5 C 173.167,95.8333 173.833,96.1667 174.5,96.5C 175.211,104.64 176.711,112.64 179,120.5C 179.383,119.944 179.883,119.611 180.5,119.5C 180.937,129.558 181.937,139.558 183.5,149.5C 182.351,149.209 181.684,148.376 181.5,147C 180.923,144.863 180.59,142.696 180.5,140.5C 180.575,136.103 180.075,131.77 179,127.5C 178.06,122.282 176.393,117.282 174,112.5C 172.023,115.546 169.189,117.213 165.5,117.5C 164.808,118.025 164.308,118.692 164,119.5C 133.407,118.562 102.741,118.562 72,119.5C 69.4213,119.364 67.2546,118.364 65.5,116.5C 64.2638,117.246 62.9305,117.579 61.5,117.5C 59.5976,111.68 57.2643,111.347 54.5,116.5C 54.5,114.5 54.5,112.5 54.5,110.5C 54.925,104.885 56.5916,99.5521 59.5,94.5C 60.794,96.9617 62.294,99.2951 64,101.5C 66.8249,99.9157 68.9916,100.582 70.5,103.5C 80.3226,103.002 90.1559,102.669 100,102.5C 101.152,104.512 102.318,104.678 103.5,103C 108.179,103.599 112.679,102.765 117,100.5C 121.529,103.493 126.196,104.16 131,102.5C 131.945,102.905 132.612,103.572 133,104.5C 134.194,103.57 135.527,102.903 137,102.5C 144.88,102.247 152.547,102.58 160,103.5C 162.126,101.623 164.626,100.623 167.5,100.5C 167.5,99.5 167.5,98.5 167.5,97.5C 168.5,97.5 169.5,97.5 170.5,97.5C 170.131,95.0065 170.797,94.3398 172.5,95.5 Z"/></g>
<g><path style="opacity:0.265" fill="#667192" d="M 170.5,61.5 C 174.677,80.5593 178.011,99.8926 180.5,119.5C 179.883,119.611 179.383,119.944 179,120.5C 176.711,112.64 175.211,104.64 174.5,96.5C 173.979,90.0853 172.979,83.7519 171.5,77.5C 170.902,72.187 170.569,66.8537 170.5,61.5 Z"/></g>
<g><path style="opacity:1" fill="#a0abbe" d="M 115.5,103.5 C 118.405,105.669 121.738,107.003 125.5,107.5C 124.829,108.946 123.662,109.612 122,109.5C 120.135,109.294 118.468,108.628 117,107.5C 114.349,109.164 111.516,109.664 108.5,109C 108.043,108.586 107.709,108.086 107.5,107.5C 109.766,106.686 112.1,106.186 114.5,106C 115.252,105.329 115.586,104.496 115.5,103.5 Z"/></g>
<g><path style="opacity:1" fill="#233960" d="M 180.5,140.5 C 179.015,136.379 177.849,132.046 177,127.5C 171.834,131.056 166.167,133.389 160,134.5C 128.84,134.171 97.5069,134.171 66,134.5C 62.4162,132.292 58.9162,129.958 55.5,127.5C 53.0498,132.534 52.0498,137.867 52.5,143.5C 51.1979,149.653 50.1979,155.986 49.5,162.5C 48.5233,165.287 48.19,168.287 48.5,171.5C 47.9473,173.552 46.9473,173.885 45.5,172.5C 45.5401,167.807 45.8734,163.141 46.5,158.5C 47.6935,158.03 48.3601,157.03 48.5,155.5C 50.6154,142.478 52.6154,129.478 54.5,116.5C 57.2643,111.347 59.5976,111.68 61.5,117.5C 62.9305,117.579 64.2638,117.246 65.5,116.5C 67.2546,118.364 69.4213,119.364 72,119.5C 102.741,118.562 133.407,118.562 164,119.5C 164.308,118.692 164.808,118.025 165.5,117.5C 169.189,117.213 172.023,115.546 174,112.5C 176.393,117.282 178.06,122.282 179,127.5C 180.075,131.77 180.575,136.103 180.5,140.5 Z"/></g>
<g><path style="opacity:1" fill="#21355b" d="M 180.5,140.5 C 180.59,142.696 180.923,144.863 181.5,147C 181.684,148.376 182.351,149.209 183.5,149.5C 184.767,160.498 186.1,171.498 187.5,182.5C 187.489,184.045 187.156,185.378 186.5,186.5C 186.167,186.5 185.833,186.5 185.5,186.5C 185.167,186.5 184.833,186.5 184.5,186.5C 185.031,179.922 184.365,173.588 182.5,167.5C 182.81,164.287 182.477,161.287 181.5,158.5C 181.209,153.088 180.376,147.755 179,142.5C 178.71,144.044 178.044,145.377 177,146.5C 176.667,145.833 176.333,145.167 176,144.5C 175.582,147.96 173.915,149.293 171,148.5C 169.248,150.002 167.248,151.002 165,151.5C 131.815,150.282 98.4813,150.282 65,151.5C 62.9803,150.968 62.147,149.635 62.5,147.5C 61.0695,147.421 59.7362,147.754 58.5,148.5C 56.217,147.029 54.217,145.362 52.5,143.5C 52.0498,137.867 53.0498,132.534 55.5,127.5C 58.9162,129.958 62.4162,132.292 66,134.5C 97.5069,134.171 128.84,134.171 160,134.5C 166.167,133.389 171.834,131.056 177,127.5C 177.849,132.046 179.015,136.379 180.5,140.5 Z"/></g>
<g><path style="opacity:0.029" fill="#d3d6dd" d="M 39.5,139.5 C 39.6495,140.552 39.4828,141.552 39,142.5C 34.3045,146.03 30.1379,150.03 26.5,154.5C 26.3379,152.473 26.5045,150.473 27,148.5C 30.6079,144.623 34.7745,141.623 39.5,139.5 Z"/></g>
<g><path style="opacity:1" fill="#1d3054" d="M 181.5,158.5 C 179.451,158.706 179.117,159.539 180.5,161C 178.481,161.45 176.648,162.283 175,163.5C 172.761,162.131 170.927,162.631 169.5,165C 133.422,165.128 97.4224,165.128 61.5,165C 59.5098,162.616 57.1765,161.783 54.5,162.5C 52.5307,158.639 50.864,158.639 49.5,162.5C 50.1979,155.986 51.1979,149.653 52.5,143.5C 54.217,145.362 56.217,147.029 58.5,148.5C 59.7362,147.754 61.0695,147.421 62.5,147.5C 62.147,149.635 62.9803,150.968 65,151.5C 98.4813,150.282 131.815,150.282 165,151.5C 167.248,151.002 169.248,150.002 171,148.5C 173.915,149.293 175.582,147.96 176,144.5C 176.333,145.167 176.667,145.833 177,146.5C 178.044,145.377 178.71,144.044 179,142.5C 180.376,147.755 181.209,153.088 181.5,158.5 Z"/></g>
<g><path style="opacity:0.406" fill="#5b6789" d="M 54.5,110.5 C 54.5,112.5 54.5,114.5 54.5,116.5C 52.6154,129.478 50.6154,142.478 48.5,155.5C 48.3601,157.03 47.6935,158.03 46.5,158.5C 48.3357,141.147 50.3357,123.814 52.5,106.5C 53.1174,106.389 53.6174,106.056 54,105.5C 54.4935,107.134 54.6602,108.801 54.5,110.5 Z"/></g>
<g><path style="opacity:1" fill="#1b2d4f" d="M 181.5,158.5 C 182.477,161.287 182.81,164.287 182.5,167.5C 180.943,168.466 179.61,169.8 178.5,171.5C 175.059,172.461 171.726,173.628 168.5,175C 160.501,174.64 152.835,174.474 145.5,174.5C 143.626,174.39 142.126,175.056 141,176.5C 140.612,175.572 139.945,174.905 139,174.5C 130.389,175.028 122.055,175.028 114,174.5C 112.105,174.615 110.438,175.282 109,176.5C 108.612,175.572 107.945,174.905 107,174.5C 92.0568,175.111 76.8901,175.278 61.5,175C 59.2998,172.954 56.6331,171.954 53.5,172C 52.6634,170.989 52.33,169.822 52.5,168.5C 51.5,168.5 50.5,168.5 49.5,168.5C 49.7373,169.791 49.404,170.791 48.5,171.5C 48.19,168.287 48.5233,165.287 49.5,162.5C 50.864,158.639 52.5307,158.639 54.5,162.5C 57.1765,161.783 59.5098,162.616 61.5,165C 97.4224,165.128 133.422,165.128 169.5,165C 170.927,162.631 172.761,162.131 175,163.5C 176.648,162.283 178.481,161.45 180.5,161C 179.117,159.539 179.451,158.706 181.5,158.5 Z"/></g>
<g><path style="opacity:0.997" fill="#1e2e50" d="M 39.5,139.5 C 34.7745,141.623 30.6079,144.623 27,148.5C 26.5045,150.473 26.3379,152.473 26.5,154.5C 25.2532,161.504 27.9199,166.671 34.5,170C 38.1325,171.049 41.7992,171.882 45.5,172.5C 46.9473,173.885 47.9473,173.552 48.5,171.5C 49.404,170.791 49.7373,169.791 49.5,168.5C 50.5,168.5 51.5,168.5 52.5,168.5C 52.33,169.822 52.6634,170.989 53.5,172C 56.6331,171.954 59.2998,172.954 61.5,175C 76.8901,175.278 92.0568,175.111 107,174.5C 107.945,174.905 108.612,175.572 109,176.5C 110.438,175.282 112.105,174.615 114,174.5C 122.055,175.028 130.389,175.028 139,174.5C 139.945,174.905 140.612,175.572 141,176.5C 142.126,175.056 143.626,174.39 145.5,174.5C 152.835,174.474 160.501,174.64 168.5,175C 171.726,173.628 175.059,172.461 178.5,171.5C 179.61,169.8 180.943,168.466 182.5,167.5C 184.365,173.588 185.031,179.922 184.5,186.5C 184.167,186.5 183.833,186.5 183.5,186.5C 183.5,183.5 183.5,180.5 183.5,177.5C 176.4,178.975 169.234,179.975 162,180.5C 128.855,179.778 95.8545,179.778 63,180.5C 53.9247,179.802 44.9247,178.469 36,176.5C 31.1125,177.237 26.2791,177.57 21.5,177.5C 20.8333,177.167 20.1667,176.833 19.5,176.5C 15.3625,169.25 12.6958,161.584 11.5,153.5C 15.0341,141.966 22.7008,134.966 34.5,132.5C 38.3447,133.279 40.0113,135.612 39.5,139.5 Z"/></g>
<g><path style="opacity:0.114" fill="#9ea2b0" d="M 11.5,153.5 C 12.6958,161.584 15.3625,169.25 19.5,176.5C 17.816,175.473 16.1494,174.473 14.5,173.5C 13.3995,171.723 12.5662,169.723 12,167.5C 11.5008,162.845 11.3342,158.179 11.5,153.5 Z"/></g>
<g><path style="opacity:1" fill="#1d2b4b" d="M 183.5,186.5 C 173.287,188.397 162.954,189.397 152.5,189.5C 117.465,190 82.4652,189.333 47.5,187.5C 43.6136,185.725 39.2803,184.892 34.5,185C 30.7342,182.53 26.7342,180.696 22.5,179.5C 22.1667,178.833 21.8333,178.167 21.5,177.5C 26.2791,177.57 31.1125,177.237 36,176.5C 44.9247,178.469 53.9247,179.802 63,180.5C 95.8545,179.778 128.855,179.778 162,180.5C 169.234,179.975 176.4,178.975 183.5,177.5C 183.5,180.5 183.5,183.5 183.5,186.5 Z"/></g>
<g><path style="opacity:0.929" fill="#7f879a" d="M 22.5,179.5 C 26.7342,180.696 30.7342,182.53 34.5,185C 39.2803,184.892 43.6136,185.725 47.5,187.5C 39.3058,187.802 31.6391,185.969 24.5,182C 23.6195,181.292 22.9528,180.458 22.5,179.5 Z"/></g>
<g><path style="opacity:0.053" fill="#fafbfb" d="M 14.5,173.5 C 16.1494,174.473 17.816,175.473 19.5,176.5C 20.1667,176.833 20.8333,177.167 21.5,177.5C 21.8333,178.167 22.1667,178.833 22.5,179.5C 22.9528,180.458 23.6195,181.292 24.5,182C 31.6391,185.969 39.3058,187.802 47.5,187.5C 55.254,189.331 63.254,190.331 71.5,190.5C 98.6636,191.664 125.997,191.83 153.5,191C 163.524,190.666 173.524,189.999 183.5,189C 184.756,188.583 185.423,187.75 185.5,186.5C 185.833,186.5 186.167,186.5 186.5,186.5C 186.64,188.124 185.973,189.29 184.5,190C 135.795,194.898 87.1285,194.564 38.5,189C 31.071,187.617 24.4044,184.617 18.5,180C 16.7682,178.028 15.4348,175.861 14.5,173.5 Z"/></g>
<g><path style="opacity:0.804" fill="#8890a0" d="M 47.5,187.5 C 82.4652,189.333 117.465,190 152.5,189.5C 125.672,190.498 98.6718,190.831 71.5,190.5C 63.254,190.331 55.254,189.331 47.5,187.5 Z"/></g>
<g><path style="opacity:0.362" fill="#cacdd5" d="M 183.5,186.5 C 183.833,186.5 184.167,186.5 184.5,186.5C 184.833,186.5 185.167,186.5 185.5,186.5C 185.423,187.75 184.756,188.583 183.5,189C 173.524,189.999 163.524,190.666 153.5,191C 125.997,191.83 98.6636,191.664 71.5,190.5C 98.6718,190.831 125.672,190.498 152.5,189.5C 162.954,189.397 173.287,188.397 183.5,186.5 Z"/></g>
</svg>
